<svg width="36" height="27" viewBox="0 0 36 27" fill="none" xmlns="http://www.w3.org/2000/svg">
<path d="M29.937 2.57296C29.9272 2.5541 29.9111 2.53933 29.8915 2.53128C27.6218 1.48991 25.2266 0.747337 22.7658 0.322134C22.7435 0.317978 22.7204 0.320976 22.6998 0.330703C22.6793 0.340429 22.6623 0.356389 22.6513 0.376312C22.3252 0.968273 22.0291 1.57632 21.7642 2.19812C19.1117 1.79546 16.4136 1.79546 13.761 2.19812C13.4944 1.57474 13.1936 0.966543 12.86 0.376312C12.8485 0.356822 12.8315 0.34123 12.811 0.331566C12.7906 0.321903 12.7677 0.318616 12.7454 0.322134C10.2844 0.746444 7.88907 1.48908 5.61965 2.53134C5.60023 2.53958 5.58383 2.55364 5.57274 2.57159C1.03436 9.34907 -0.208876 15.9599 0.401012 22.4889C0.402728 22.5049 0.407644 22.5204 0.415468 22.5344C0.423293 22.5485 0.433865 22.5608 0.446557 22.5707C3.08921 24.5274 6.04506 26.021 9.18795 26.9877C9.21009 26.9943 9.23372 26.994 9.25568 26.9868C9.27764 26.9796 9.29686 26.9659 9.31078 26.9474C9.9858 26.0289 10.5839 25.0564 11.0991 24.0396C11.1061 24.0256 11.1102 24.0103 11.1109 23.9947C11.1117 23.9791 11.1091 23.9634 11.1033 23.9489C11.0976 23.9343 11.0889 23.9212 11.0777 23.9102C11.0665 23.8993 11.0531 23.8909 11.0384 23.8855C10.0952 23.5246 9.18208 23.0895 8.30759 22.5844C8.29171 22.5751 8.27837 22.562 8.26875 22.5463C8.25913 22.5306 8.25352 22.5127 8.25244 22.4943C8.25135 22.4759 8.25481 22.4575 8.2625 22.4408C8.2702 22.4241 8.2819 22.4095 8.29658 22.3983C8.48007 22.2609 8.66368 22.1178 8.83889 21.9734C8.85446 21.9606 8.8733 21.9524 8.89328 21.9497C8.91327 21.947 8.93361 21.9499 8.95201 21.9582C14.6811 24.5728 20.8837 24.5728 26.5449 21.9582C26.5634 21.9494 26.5839 21.946 26.6042 21.9485C26.6245 21.951 26.6437 21.9591 26.6595 21.972C26.8348 22.1165 27.0183 22.2609 27.2032 22.3983C27.2179 22.4094 27.2297 22.4239 27.2376 22.4405C27.2454 22.4572 27.249 22.4756 27.248 22.494C27.2471 22.5123 27.2416 22.5302 27.2321 22.546C27.2226 22.5618 27.2093 22.575 27.1935 22.5844C26.321 23.0938 25.4071 23.5286 24.4614 23.8841C24.4467 23.8897 24.4334 23.8983 24.4223 23.9094C24.4111 23.9205 24.4025 23.9338 24.3969 23.9485C24.3913 23.9632 24.3888 23.9789 24.3897 23.9946C24.3905 24.0103 24.3947 24.0256 24.4019 24.0396C24.9256 25.0507 25.5229 26.0221 26.1888 26.9458C26.2023 26.9648 26.2214 26.979 26.2435 26.9865C26.2655 26.9939 26.2894 26.9943 26.3116 26.9875C29.4601 26.0241 32.4212 24.5304 35.0671 22.5707C35.08 22.5613 35.0907 22.5493 35.0986 22.5354C35.1064 22.5215 35.1112 22.5061 35.1127 22.4902C35.8428 14.9421 33.8903 8.38541 29.937 2.57296ZM11.9547 18.5134C10.2298 18.5134 8.80853 16.9305 8.80853 14.9865C8.80853 13.0426 10.2022 11.4596 11.9547 11.4596C13.7208 11.4596 15.1283 13.0563 15.1007 14.9864C15.1007 16.9305 13.707 18.5134 11.9547 18.5134ZM23.5868 18.5134C21.862 18.5134 20.4408 16.9305 20.4408 14.9865C20.4408 13.0426 21.8344 11.4596 23.5868 11.4596C25.3531 11.4596 26.7605 13.0563 26.733 14.9864C26.733 16.9305 25.3531 18.5134 23.5868 18.5134Z" fill="white"/>
</svg>
