<svg width="33" height="35" viewBox="0 0 33 35" fill="none" xmlns="http://www.w3.org/2000/svg">
<path d="M16.5033 8.37872C11.9181 8.37872 8.21962 12.3158 8.21962 17.1968C8.21962 22.0779 11.9181 26.0149 16.5033 26.0149C21.0885 26.0149 24.787 22.0779 24.787 17.1968C24.787 12.3158 21.0885 8.37872 16.5033 8.37872ZM16.5033 22.9297C13.5402 22.9297 11.1178 20.3587 11.1178 17.1968C11.1178 14.0349 13.533 11.4639 16.5033 11.4639C19.4736 11.4639 21.8888 14.0349 21.8888 17.1968C21.8888 20.3587 19.4664 22.9297 16.5033 22.9297V22.9297ZM27.0579 8.01802C27.0579 9.16153 26.1928 10.0748 25.1258 10.0748C24.0516 10.0748 23.1937 9.15386 23.1937 8.01802C23.1937 6.88218 24.0588 5.96123 25.1258 5.96123C26.1928 5.96123 27.0579 6.88218 27.0579 8.01802ZM32.5443 10.1055C32.4218 7.35033 31.8306 4.90981 29.9345 2.89907C28.0456 0.888333 25.753 0.259017 23.1648 0.120875C20.4973 -0.0402916 12.502 -0.0402916 9.83454 0.120875C7.25356 0.251343 4.96095 0.880658 3.06486 2.8914C1.16878 4.90214 0.584811 7.34266 0.455041 10.0978C0.303642 12.9374 0.303642 21.4485 0.455041 24.2881C0.577601 27.0433 1.16878 29.4838 3.06486 31.4946C4.96095 33.5053 7.24635 34.1346 9.83454 34.2728C12.502 34.4339 20.4973 34.4339 23.1648 34.2728C25.753 34.1423 28.0456 33.513 29.9345 31.4946C31.8234 29.4838 32.4146 27.0433 32.5443 24.2881C32.6957 21.4485 32.6957 12.9451 32.5443 10.1055V10.1055ZM29.0982 27.3349C28.5359 28.8392 27.4472 29.998 26.027 30.6043C23.9002 31.5022 18.8536 31.295 16.5033 31.295C14.153 31.295 9.09918 31.4946 6.9796 30.6043C5.56654 30.0057 4.47792 28.8468 3.90837 27.3349C3.06486 25.0709 3.25952 19.6987 3.25952 17.1968C3.25952 14.6949 3.07207 9.31502 3.90837 7.0587C4.47071 5.55448 5.55934 4.39562 6.9796 3.78932C9.10639 2.8914 14.153 3.09861 16.5033 3.09861C18.8536 3.09861 23.9074 2.89907 26.027 3.78932C27.44 4.38794 28.5287 5.5468 29.0982 7.0587C29.9417 9.3227 29.7471 14.6949 29.7471 17.1968C29.7471 19.6987 29.9417 25.0786 29.0982 27.3349Z" fill="white"/>
</svg>
