<svg width="31" height="29" viewBox="0 0 31 29" fill="none" xmlns="http://www.w3.org/2000/svg">
<path d="M28.5983 0.490234H2.69337C1.50637 0.490234 0.541931 1.40072 0.541931 2.51842V26.5929C0.541931 27.7106 1.50637 28.6211 2.69337 28.6211H28.5983C29.7853 28.6211 30.7565 27.7106 30.7565 26.5929V2.51842C30.7565 1.40072 29.7853 0.490234 28.5983 0.490234ZM9.67375 24.6024H5.19552V11.1774H9.6805V24.6024H9.67375ZM7.43464 9.34391C5.99809 9.34391 4.83807 8.25761 4.83807 6.92642C4.83807 5.59523 5.99809 4.50892 7.43464 4.50892C8.86443 4.50892 10.0312 5.59523 10.0312 6.92642C10.0312 8.26389 8.87118 9.34391 7.43464 9.34391V9.34391ZM26.4604 24.6024H21.9822V18.072C21.9822 16.5148 21.9484 14.5117 19.6554 14.5117C17.3218 14.5117 16.9644 16.2071 16.9644 17.959V24.6024H12.4861V11.1774H16.7823V13.011H16.843C17.4432 11.9561 18.9067 10.8446 21.0852 10.8446C25.6173 10.8446 26.4604 13.6263 26.4604 17.2431V24.6024V24.6024Z" fill="white"/>
</svg>
