<svg width="33" height="34" viewBox="0 0 33 34" fill="none" xmlns="http://www.w3.org/2000/svg">
<path d="M0 0.830078V33.1284H32.2984V0.830078H0ZM26.8336 8.47931L25.1033 10.1375C24.9519 10.2528 24.8798 10.4403 24.9087 10.6205V22.8261C24.8798 23.0136 24.9519 23.201 25.1033 23.3092L26.7975 24.9673V25.335H18.2904V24.9818L20.0423 23.2803C20.2153 23.1073 20.2153 23.0568 20.2153 22.7973V12.9275L15.3417 25.299H14.6857L9.01182 12.9275V21.2184C8.96135 21.5645 9.08391 21.9177 9.32904 22.1701L11.6072 24.9313V25.299H5.13313V24.9313L7.41132 22.1701C7.65644 21.9177 7.76458 21.5645 7.70691 21.2184V11.6298C7.73575 11.3631 7.63481 11.1036 7.43295 10.9233L5.40709 8.47931V8.11163H11.7009L16.5601 18.7816L20.8353 8.11884H26.8336V8.47931Z" fill="white"/>
</svg>
