<svg width="207" height="181" viewBox="0 0 207 181" fill="none" xmlns="http://www.w3.org/2000/svg">
<path d="M206.99 90.2769C206.99 87.0842 204.496 84.4667 201.344 84.2386L184.146 54.5628C184.505 53.7993 184.705 52.9466 184.705 52.0443C184.705 48.8913 182.281 46.3035 179.189 46.0159L157.492 8.57655C157.851 7.81309 158.051 6.96039 158.051 6.05812C158.051 2.70682 155.317 0 151.956 0C149.911 0 148.105 1.01134 146.998 2.54818H59.7029C58.5956 1.01134 56.7901 0 54.7451 0C51.3734 0 48.6501 2.71673 48.6501 6.05812C48.6501 7.00005 48.8696 7.8825 49.2586 8.6757L28.4 44.6278C25.3076 44.9154 22.8836 47.5032 22.8836 50.6562C22.8836 51.5585 23.0831 52.4013 23.4422 53.1746L5.3967 84.2684C2.36418 84.6154 0 87.1735 0 90.2868C0 93.4002 2.3542 95.9583 5.3967 96.3053L24.1904 128.728C23.3824 129.759 22.8936 131.048 22.8936 132.456C22.8936 135.807 25.6269 138.514 28.9886 138.514C29.2779 138.514 29.5572 138.484 29.8265 138.454L49.3484 172.146C48.9095 172.979 48.6601 173.931 48.6601 174.942C48.6601 178.293 51.3934 181 54.7551 181C56.9397 181 58.845 179.86 59.9224 178.144H146.788C147.866 179.86 149.771 181 151.956 181C155.327 181 158.051 178.283 158.051 174.942C158.051 173.98 157.821 173.068 157.412 172.255L177.104 138.325C177.582 138.444 178.091 138.524 178.61 138.524C181.982 138.524 184.705 135.807 184.705 132.466C184.705 130.82 184.037 129.323 182.969 128.232L201.484 96.335C204.576 96.0475 207 93.4596 207 90.3066L206.99 90.2769ZM11.5715 92.9044C11.9605 92.1112 12.18 91.2188 12.18 90.2769C12.18 89.335 11.9605 88.4525 11.5715 87.6593L29.5472 56.6846C31.2131 56.5259 32.6795 55.7129 33.677 54.4933L53.558 74.9482V108.223L33.9164 128.926C33.2481 127.994 32.3104 127.25 31.2231 126.824L11.5615 92.9044H11.5715ZM172.525 132.129L172.395 132.357H161.961L164.205 121.737L172.784 130.671C172.645 131.137 172.565 131.623 172.535 132.129H172.525ZM159.796 132.357H112.343L105.37 125.188L137.092 93.4894L162.43 119.883L159.796 132.347V132.357ZM151.178 168.923C150.29 169.032 149.462 169.34 148.734 169.786L114.388 134.468H159.347L152.584 166.494L151.178 168.913V168.923ZM57.8375 169.707C57.1891 169.33 56.4709 169.072 55.7028 168.943V134.459H93.1006L57.8375 169.697V169.707ZM55.7028 132.357V109.056L71.035 92.8945L102.408 125.168L95.2154 132.357H55.7028ZM35.0736 132.357C35.0736 131.891 35.0038 131.434 34.894 130.998L53.578 111.297V132.357H35.0736ZM34.8142 48.8715L53.588 42.1887V71.9042L34.7743 52.55C34.9738 51.9551 35.0836 51.3106 35.0836 50.6463C35.0836 50.0316 34.9938 49.4267 34.8142 48.8715ZM55.7127 41.4352L79.145 33.0966L102.138 57.0514L71.035 89.8406L55.7227 74.0856V41.4253L55.7127 41.4352ZM58.0669 11.1446L77.539 31.4308L55.7127 39.2043V12.027C56.5706 11.8981 57.3687 11.5808 58.0669 11.1346V11.1446ZM147.008 9.56806C147.008 9.56806 147.058 9.63747 147.088 9.66721L103.595 55.5146L81.3296 32.3133L145.242 9.55815H147.008V9.56806ZM103.595 58.5784L135.636 91.9625L103.904 123.671L72.4914 91.3577L103.585 58.5784H103.595ZM69.5686 91.3775L55.7127 105.982V77.1196L69.5686 91.3676V91.3775ZM103.894 126.675L109.41 132.347H98.218L103.894 126.675ZM138.609 91.9922L174.311 56.3177C174.71 56.7143 175.168 57.0514 175.657 57.3291L162.978 117.385L138.609 91.9922ZM173.084 54.5528L137.142 90.4653L105.061 57.0415L148.624 11.1148C149.432 11.6403 150.37 11.9873 151.387 12.0865L173.084 49.5259C172.734 50.2893 172.525 51.142 172.525 52.0443C172.525 52.9466 172.724 53.7894 173.074 54.5528H173.084ZM79.7236 30.6475L59.6231 9.70687C59.6231 9.70687 59.6929 9.61764 59.7229 9.56806H138.948L79.7236 30.6475ZM53.588 39.9479L35.5524 46.363L53.588 15.2891V39.9479ZM53.588 134.459V165.354L35.6821 134.459H53.588ZM59.4635 171.065L96.1032 134.459H111.455L147.078 171.095H59.4735C59.4735 171.095 59.4635 171.075 59.4535 171.065H59.4635ZM161.522 134.459H171.178L155.996 160.615L161.522 134.459ZM175.298 127.359C174.739 127.726 174.241 128.172 173.822 128.698L164.734 119.229L177.662 58.0132C177.782 58.033 177.902 58.0529 178.021 58.0628L195.299 87.8675C194.98 88.6012 194.8 89.4143 194.8 90.267C194.8 91.1693 195 92.012 195.359 92.7854L175.298 127.359Z" fill="white"/>
</svg>
