<svg width="103" height="103" viewBox="0 0 103 103" fill="none" xmlns="http://www.w3.org/2000/svg">
<path d="M89.9021 13.0979H89.8952L101.313 15.3801C101.926 15.5027 102.43 15.9523 102.607 16.5586C102.697 16.8532 102.705 17.1664 102.63 17.4651C102.556 17.7638 102.402 18.0368 102.185 18.255L92.8314 27.6153C91.7123 28.7324 90.1957 29.3596 88.6145 29.3593H80.8619L61.3781 48.8499C61.7498 50.2534 61.8182 51.72 61.5787 53.1521C61.3391 54.5841 60.7971 55.9486 59.9889 57.1547C59.1806 58.3609 58.1246 59.3809 56.8912 60.1469C55.6578 60.9129 54.2753 61.4073 52.8359 61.5971C51.3964 61.7869 49.933 61.6678 48.5432 61.2477C47.1534 60.8276 45.8691 60.1162 44.7758 59.1608C43.6825 58.2054 42.8054 57.028 42.2028 55.707C41.6002 54.3861 41.2861 52.9519 41.2812 51.5C41.2823 49.9323 41.6437 48.3859 42.3376 46.9803C43.0315 45.5746 44.0394 44.3473 45.2832 43.3932C46.527 42.4391 47.9736 41.7837 49.511 41.4778C51.0485 41.1718 52.6357 41.2234 54.1501 41.6286L73.6406 22.1313V14.3855C73.6406 12.805 74.2674 11.2858 75.3846 10.1685L84.745 0.808144C84.9632 0.591022 85.2361 0.43709 85.5348 0.362717C85.8335 0.288344 86.1468 0.296311 86.4413 0.385769C87.0476 0.562894 87.4973 1.06702 87.6199 1.68014L89.9021 13.0979Z" fill="white"/>
<path d="M10.6245 51.4999C10.6315 57.3448 11.8919 63.1202 14.3207 68.4365C16.7495 73.7528 20.2903 78.4864 24.7041 82.318C29.1178 86.1496 34.302 88.99 39.9069 90.6476C45.5118 92.3053 51.407 92.7416 57.1948 91.9272C62.9827 91.1128 68.5285 89.0666 73.4583 85.9267C78.3881 82.7867 82.5872 78.626 85.7723 73.7252C88.9573 68.8244 91.0543 63.2975 91.9218 57.5173C92.7892 51.7372 92.407 45.8383 90.8008 40.2184C90.5753 39.5619 90.4858 38.8663 90.5377 38.174C90.5896 37.4817 90.7818 36.8072 91.1027 36.1916C91.4236 35.576 91.8664 35.0322 92.4042 34.5932C92.942 34.1542 93.5635 33.8292 94.2309 33.6381C94.8982 33.4469 95.5975 33.3936 96.2862 33.4813C96.9748 33.5691 97.6384 33.7961 98.2366 34.1485C98.8347 34.5008 99.3548 34.9713 99.7654 35.5311C100.176 36.0909 100.468 36.7285 100.624 37.4049C103.735 48.288 103.144 59.8957 98.9448 70.4069C94.7459 80.918 87.1764 89.7379 77.4239 95.4828C67.6713 101.228 56.2876 103.573 45.0586 102.149C33.8296 100.726 23.3907 95.6159 15.3796 87.6198C7.37725 79.6107 2.26129 69.1708 0.834951 57.9392C-0.591393 46.7076 1.75265 35.3203 7.49907 25.5652C13.2455 15.8101 22.0688 8.23961 32.5839 4.04228C43.0989 -0.155054 54.7101 -0.741511 65.5946 2.37498C66.8906 2.75384 67.9839 3.63031 68.6357 4.81285C69.2875 5.99539 69.4446 7.38785 69.0729 8.68592C68.7011 9.98399 67.8306 11.0821 66.6516 11.7403C65.4726 12.3985 64.0811 12.5633 62.781 12.1986C56.6946 10.4523 50.2857 10.1437 44.0597 11.2971C37.8336 12.4505 31.9606 15.0343 26.9036 18.8449C21.8466 22.6555 17.7438 27.5886 14.9188 33.2555C12.0938 38.9223 10.6237 45.1679 10.6245 51.4999V51.4999Z" fill="white"/>
<path d="M31.0618 51.4999C31.0623 55.2236 32.0793 58.8765 34.0032 62.0646C35.9272 65.2526 38.6851 67.855 41.9794 69.5908C45.2737 71.3266 48.9794 72.1301 52.6968 71.9146C56.4142 71.699 60.0022 70.4726 63.0738 68.3677C66.1448 66.2575 68.5805 63.3478 70.1174 59.9533C71.6544 56.5589 72.2341 52.8088 71.7938 49.1088C71.6747 48.2109 71.7971 47.2975 72.1484 46.4626C72.4996 45.6278 73.0671 44.9016 73.7922 44.359C74.5174 43.8163 75.3741 43.4767 76.2742 43.3752C77.1742 43.2737 78.085 43.4139 78.9129 43.7814C79.7405 44.1441 80.4572 44.7198 80.9897 45.4499C81.5223 46.1799 81.8517 47.0381 81.9444 47.937C82.6846 54.2597 81.4382 60.656 78.3782 66.2381C75.3181 71.8203 70.5962 76.3114 64.8678 79.088C59.1394 81.8647 52.6887 82.7892 46.4111 81.7333C40.1334 80.6774 34.3401 77.6934 29.8354 73.1954C25.3306 68.6975 22.3378 62.9088 21.2723 56.6327C20.2068 50.3566 21.1216 43.9046 23.8896 38.172C26.6575 32.4394 31.1414 27.7106 36.7189 24.6421C42.2964 21.5736 48.6908 20.3174 55.0146 21.0481C55.6917 21.1109 56.3495 21.3083 56.9494 21.6286C57.5492 21.9489 58.0791 22.3858 58.508 22.9136C58.9368 23.4414 59.256 24.0494 59.4467 24.7022C59.6375 25.3549 59.6961 26.0391 59.619 26.7148C59.5419 27.3904 59.3307 28.0439 58.9978 28.6369C58.6649 29.2299 58.217 29.7504 57.6803 30.168C57.1436 30.5856 56.5289 30.8919 55.8723 31.0689C55.2157 31.2459 54.5304 31.29 53.8565 31.1987C50.9929 30.8662 48.0914 31.1433 45.3425 32.0118C42.5936 32.8802 40.0595 34.3204 37.9067 36.2377C35.7539 38.155 34.0311 40.5061 32.8514 43.1365C31.6717 45.7669 31.0618 48.6171 31.0618 51.4999Z" fill="white"/>
</svg>
