<svg width="32" height="27" viewBox="0 0 32 27" fill="none" xmlns="http://www.w3.org/2000/svg">
<path d="M28.2218 6.6579C28.2414 6.94348 28.2414 7.22912 28.2414 7.5147C28.2414 16.2252 21.8572 26.2618 10.1887 26.2618C6.59384 26.2618 3.2544 25.1805 0.445312 23.3039C0.956072 23.365 1.44712 23.3855 1.97753 23.3855C4.94371 23.3855 7.67425 22.3451 9.85473 20.5704C7.06529 20.5091 4.72766 18.612 3.92225 16.0009C4.31516 16.062 4.70801 16.1028 5.12057 16.1028C5.69023 16.1028 6.25994 16.0212 6.79029 15.8785C3.88301 15.2664 1.70247 12.6145 1.70247 9.41184V9.33027C2.54712 9.81986 3.5294 10.1258 4.57045 10.1666C2.86143 8.98341 1.74177 6.96389 1.74177 4.67914C1.74177 3.4552 2.05602 2.33323 2.60608 1.35405C5.72947 5.35233 10.4244 7.96341 15.6889 8.24905C15.5907 7.75946 15.5317 7.24953 15.5317 6.73953C15.5317 3.10839 18.3605 0.150513 21.8767 0.150513C23.7036 0.150513 25.3537 0.946088 26.5127 2.23125C27.9466 1.94567 29.3217 1.39486 30.5397 0.640102C30.0682 2.17009 29.0664 3.45526 27.7502 4.27118C29.0271 4.12845 30.2647 3.76118 31.404 3.25125C30.5398 4.55676 29.4593 5.71948 28.2218 6.6579V6.6579Z" fill="white"/>
</svg>
