<svg width="37" height="26" viewBox="0 0 37 26" fill="none" xmlns="http://www.w3.org/2000/svg">
<path d="M36.1777 4.83095C35.7622 3.31536 34.538 2.12174 32.9837 1.71666C30.1663 0.980591 18.8689 0.980591 18.8689 0.980591C18.8689 0.980591 7.57159 0.980591 4.75414 1.71666C3.19979 2.1218 1.97559 3.31536 1.56009 4.83095C0.805176 7.57804 0.805176 13.3096 0.805176 13.3096C0.805176 13.3096 0.805176 19.0411 1.56009 21.7882C1.97559 23.3038 3.19979 24.4477 4.75414 24.8528C7.57159 25.5889 18.8689 25.5889 18.8689 25.5889C18.8689 25.5889 30.1662 25.5889 32.9837 24.8528C34.538 24.4477 35.7622 23.3038 36.1777 21.7882C36.9326 19.0411 36.9326 13.3096 36.9326 13.3096C36.9326 13.3096 36.9326 7.57804 36.1777 4.83095ZM15.174 18.5134V8.10578L24.6164 13.3097L15.174 18.5134Z" fill="white"/>
</svg>
