<svg width="257" height="77" viewBox="0 0 257 77" fill="none" xmlns="http://www.w3.org/2000/svg">
<path d="M11.5 69.3C11.4 70.4 11.2 71.2 10.9 71.9C10.2 73.6 9 74.5 7.3 74.5C5.8 74.5 4.7 73.9 3.9 72.6C3 71.2 2.5 69.3 2.5 67.1C2.5 65 2.9 63.2 3.8 61.8C4.6 60.4 5.8 59.7 7.3 59.7C8.6 59.7 9.6 60.2 10.4 61.2C10.9 61.8 11.2 62.6 11.3 63.5V63.6H13.8V63.5C13.7 62.3 13.3 61.1 12.5 60.1C11.3 58.4 9.6 57.6 7.4 57.6C5.1 57.6 3.2 58.6 1.9 60.5C0.7 62.2 0 64.5 0 67.2C0 70 0.6 72.3 1.9 74.1C3.1 75.8 4.9 76.7 7.3 76.7C9.7 76.7 11.5 75.7 12.7 73.7C13.4 72.5 13.9 71.1 14 69.4V69.3H11.5ZM27.9 58.9C26.8 58 25.4 57.6 24 57.6C21.8 57.6 19.9 58.5 18.5 60.2C17.1 61.9 16.4 64.2 16.4 67.1C16.4 70.6 17.4 73.2 19.4 75C20.6 76.1 22.1 76.7 23.9 76.7C25.1 76.7 26.2 76.4 27.2 75.9C28.2 75.3 29.1 74.5 29.7 73.5C30.8 71.8 31.3 69.7 31.3 67.2C31.3 65.6 31.1 64.2 30.6 62.9C30.1 61.3 29.1 59.9 27.9 58.9ZM28.3 70.8C27.9 72.1 27.2 73.1 26.4 73.7C25.7 74.3 24.8 74.5 24 74.5C23.3 74.5 22.7 74.3 22.1 74C21.3 73.6 20.7 73 20.2 72.2C19.4 70.8 19 69.1 19 67C19 64.8 19.5 63 20.4 61.6C21.3 60.3 22.4 59.7 23.8 59.7C25.3 59.7 26.5 60.4 27.4 61.7C28.3 63.1 28.8 64.9 28.8 67.1C28.8 68.5 28.6 69.7 28.3 70.8ZM45 72.4L37.3 58.2V58H34.8V76.3H37V62.2L44.6 76.2V76.3H47.2V58H45V72.4ZM59.3 66.7C59 66.6 58.3 66.3 57.2 65.9C55.9 65.5 55.1 65.2 54.6 64.9C53.7 64.3 53.3 63.6 53.3 62.7C53.3 61.9 53.6 61.2 54.1 60.7C54.6 60.2 55.3 60 56.2 60C57.4 60 58.3 60.4 58.9 61.3C59.2 61.8 59.4 62.4 59.5 63.2V63.3H62V63.2C61.9 62.5 61.9 62 61.7 61.6C61.4 60.5 60.7 59.7 59.8 59C58.8 58.3 57.6 57.9 56.2 57.9C54.5 57.9 53.2 58.4 52.2 59.4C51.3 60.3 50.8 61.5 50.8 62.9C50.8 64.3 51.3 65.5 52.3 66.4C53 67 54.2 67.6 55.8 68.1C57.4 68.6 58.3 69 58.7 69.3C59.6 69.9 60 70.7 60 71.7C60 72.5 59.8 73.1 59.3 73.7C58.7 74.4 57.8 74.8 56.6 74.8C55.2 74.8 54.1 74.3 53.5 73.2C53.2 72.6 52.9 71.8 52.9 70.8V70.7H50.5V70.8C50.6 72.1 50.9 73.3 51.4 74.1C52.5 76 54.3 76.9 56.7 76.9C58.5 76.9 59.9 76.4 61 75.3C62 74.3 62.6 73 62.6 71.5C62.5 69.1 61.4 67.7 59.3 66.7ZM75.7 68.3C75.7 70.3 75.6 71.6 75.3 72.4C74.8 73.9 73.7 74.6 72 74.6C71 74.6 70.1 74.4 69.5 73.9C68.8 73.3 68.3 72.4 68.1 71C68 70.5 68 69.6 68 68.4V58H65.6V68.3C65.6 70 65.7 71.3 65.9 72.2C66.3 73.7 67 74.9 68 75.7C69 76.4 70.3 76.8 72 76.8C75 76.8 77 75.3 77.8 72.3C78 71.5 78.1 70.2 78.1 68.4V58H75.7V68.3ZM84.5 58H82V76.3H92.3V74.1H84.5V58ZM91.5 60.3H96.5V76.3H99V60.3H104V58H91.5V60.3ZM106.8 58H109.2V76.2H106.8V58ZM123.6 72.4L116 58.2L115.9 58H113.4V76.3H115.7V62.2L123.2 76.2L123.3 76.3H125.8V58H123.6V72.4ZM136.5 68.7H141.2C141.1 70.7 140.6 72.3 139.7 73.3C138.9 74.2 137.9 74.6 136.7 74.6C135.2 74.6 134 74 133.1 72.7C132.2 71.3 131.7 69.5 131.7 67.2C131.7 65.1 132.1 63.3 132.9 62C133.8 60.5 135.1 59.8 136.7 59.8C138.2 59.8 139.3 60.4 140.1 61.7C140.5 62.3 140.7 63 140.8 63.8V63.9H143.2V63.8C143.1 62.6 142.7 61.5 142.2 60.6C141 58.7 139.2 57.7 136.7 57.7C134.7 57.7 133 58.4 131.8 59.7C130.1 61.6 129.2 64.1 129.2 67.3C129.2 69 129.5 70.6 130.1 72.1C130.5 73.1 131.1 74.1 131.9 74.9C133.1 76.1 134.7 76.8 136.6 76.8C138.6 76.8 140.2 76 141.4 74.3V76.3H143.5V66.6H136.5V68.7ZM28.3 5.8C24.9 2.6 20.2 1 14.2 1H0.7V44.9H14.2C16.9 44.9 19.2 44.7 21.2 44.2C24 43.5 26.5 42.1 28.6 39.9C32.5 35.9 34.5 30.2 34.5 22.9C34.6 15.3 32.5 9.6 28.3 5.8ZM21.6 34.4C20.1 36 17.6 36.8 14.3 36.8H10.1V8.9H14.1C17.8 8.9 20.5 10 22.2 12.2C24.2 14.7 25.2 18.2 25.2 22.6C25.1 28.1 24 31.9 21.6 34.4ZM67.6 36.8H48.6V26.1H65.6V18.4H48.6V8.9H67.2V1H39.2V44.9H67.6V36.8ZM82.4 44.9H91.8V8.9H102.5V1H71.7V8.9H82.4V44.9ZM135.5 36.8H116.5V26.1H133.5V18.4H116.5V8.9H135.1V1H107.1V44.9H135.5V36.8ZM163.4 35.4C162.2 37 160.4 37.9 158.2 37.9C155.4 37.9 153.2 36.6 151.7 33.9C150 31 149.2 27.3 149.2 23C149.2 18.7 150 15.1 151.6 12.2C153.1 9.4 155.4 8.1 158.3 8.1C160.9 8.1 162.9 9.3 164.3 11.7C164.9 12.8 165.4 14.2 165.7 15.9H175C174.8 12.7 173.7 9.7 171.9 7.1C168.7 2.5 164.2 0.2 158.4 0.2C153 0.2 148.6 2.2 145.3 6.2C141.6 10.6 139.8 16.3 139.8 23.2C139.8 30.3 141.7 36.1 145.5 40.6C148.6 44.3 152.9 46.1 158.2 46.1C163.8 46.1 168.2 44 171.3 39.7C173.6 36.6 174.9 32.7 175.2 28H165.8C165.4 31.3 164.6 33.8 163.4 35.4ZM199.2 0C193.8 0 189.4 2 185.9 5.9C182.2 10.1 180.4 15.6 180.4 22.6C180.4 29 181.8 34.3 184.6 38.4C188.1 43.4 193 46 199.2 46C202.1 46 204.6 45.4 207 44.3C209.6 43 211.8 41.1 213.5 38.6C216.4 34.4 217.8 29.2 217.8 23C217.8 15.7 215.9 10 212 5.7C208.7 1.9 204.4 0 199.2 0ZM205.7 34.1C205 35.3 204.1 36.2 202.9 36.9C201.8 37.6 200.5 37.9 199.3 37.9C197.9 37.9 196.6 37.5 195.4 36.8C194.1 36 193.1 35.1 192.4 33.8C190.7 30.9 189.9 27.2 189.9 22.7C189.9 18.6 190.8 15.1 192.5 12.1C194.1 9.4 196.3 8 199.3 8C202.2 8 204.5 9.4 206.1 12.1C207.8 15 208.6 18.6 208.6 22.8C208.4 27.3 207.5 31.1 205.7 34.1ZM247 1V29.1L233.3 1H223.7V44.9H232.8V16.7L246.6 44.9H256.1V1H247Z" fill="white"/>
</svg>
