<svg width="298" height="47" viewBox="0 0 298 47" fill="none" xmlns="http://www.w3.org/2000/svg">
<path d="M143.341 43.4379C140.718 41.4029 139.407 38.5593 139.407 34.9071C139.407 31.1168 140.668 28.2004 143.197 26.1654C145.723 24.1266 149.346 23.111 154.068 23.111C155.913 23.111 157.754 23.3103 159.595 23.7089C161.436 24.1074 163.017 24.6325 164.34 25.2878V24.5865C164.34 20.9802 161.366 19.179 155.414 19.179C151.257 19.179 147.455 19.9761 144.01 21.5666V13.0702C145.518 12.3689 147.506 11.7978 149.961 11.3495C152.417 10.9049 154.966 10.6826 157.615 10.6826C163.942 10.6826 168.725 11.9358 171.962 14.4383C175.195 16.9447 176.812 20.4437 176.812 24.9352V45.4384H165.125V42.5603C163.849 43.779 162.244 44.7371 160.306 45.4384C158.373 46.1398 156.149 46.4923 153.647 46.4923C149.397 46.4923 145.959 45.4768 143.341 43.4379ZM161.439 38.0304C162.719 37.4479 163.686 36.6853 164.344 35.7502V32.7993C162.313 31.4426 159.997 30.7643 157.402 30.7643C155.751 30.7643 154.471 31.1168 153.577 31.8182C152.68 32.5195 152.231 33.5504 152.231 34.9071C152.231 36.1717 152.668 37.1528 153.542 37.858C154.416 38.5593 155.677 38.9119 157.332 38.9119C158.798 38.9081 160.163 38.6206 161.439 38.0304Z" fill="white"/>
<path d="M181.066 11.7366H193.112V15.4578C194.574 13.8674 196.346 12.6717 198.426 11.8784C200.507 11.0813 202.68 10.6865 204.946 10.6865C209.719 10.6865 213.246 11.9167 215.539 14.3733C217.828 16.8298 218.973 20.1678 218.973 24.3796V45.4423H206.501V25.9892C206.501 22.199 204.753 20.302 201.257 20.302C199.652 20.302 198.186 20.666 196.868 21.3903C195.545 22.1185 194.431 23.2299 193.538 24.7283V45.4423H181.066V11.7366Z" fill="white"/>
<path d="M227.264 41.8591C223.625 38.7702 221.812 34.3706 221.812 28.6604C221.812 22.9501 223.641 18.5276 227.303 15.3888C230.962 12.254 235.908 10.6865 242.146 10.6865C244.934 10.6865 247.545 10.9548 249.977 11.4913C252.41 12.0317 254.428 12.7905 256.033 13.7754V23.3947C253.152 21.3367 249.351 20.3058 244.629 20.3058C241.604 20.3058 239.187 20.9956 237.366 22.3753C235.548 23.7549 234.639 25.8512 234.639 28.6604C234.639 31.5155 235.537 33.6118 237.335 34.9455C239.129 36.2791 241.535 36.946 244.563 36.946C249.142 36.946 253.11 35.8729 256.462 33.7191V43.2655C252.874 45.4193 248.078 46.4962 242.084 46.4962C235.838 46.4924 230.9 44.948 227.264 41.8591Z" fill="white"/>
<path d="M263.926 41.8591C260.129 38.7702 258.226 34.3936 258.226 28.7293C258.226 23.1609 259.912 18.7575 263.292 15.5306C266.668 12.3 271.545 10.6865 277.922 10.6865C281.979 10.6865 285.467 11.4453 288.368 12.9668C291.272 14.4882 293.469 16.5731 294.958 19.2174C296.446 21.8617 297.185 24.8433 297.185 28.1698V32.7342H270.052C270.524 34.6082 271.704 35.9649 273.598 36.808C275.486 37.6511 278.061 38.0727 281.318 38.0727C283.537 38.0727 285.815 37.8849 288.155 37.5132C290.495 37.1376 292.513 36.624 294.211 35.9687V44.1163C292.463 44.8177 290.278 45.3925 287.656 45.8371C285.034 46.2816 282.354 46.5039 279.616 46.5039C272.96 46.4924 267.732 44.948 263.926 41.8591ZM285.432 25.0081C285.243 23.1801 284.485 21.7544 283.162 20.7273C281.84 19.6964 280.022 19.1829 277.709 19.1829C275.443 19.1829 273.649 19.7118 272.322 20.7618C271 21.8157 270.246 23.2337 270.056 25.0119H285.432V25.0081Z" fill="white"/>
<path d="M30.3306 12.9668C27.4301 11.4453 23.9418 10.6865 19.8812 10.6865C13.504 10.6865 8.62348 12.3 5.25121 15.5306C1.87506 18.7575 0.185059 23.1609 0.185059 28.7293C0.185059 34.3936 2.08776 38.7702 5.88544 41.8591C9.68699 44.948 14.9194 46.4924 21.5828 46.4924C24.3208 46.4924 27.0008 46.2701 29.6229 45.8256C32.2449 45.381 34.4299 44.8062 36.1779 44.1048V35.961C34.4802 36.6164 32.4576 37.1337 30.1217 37.5055C27.782 37.8811 25.5042 38.065 23.2844 38.065C20.0281 38.065 17.4486 37.6434 15.5653 36.8003C13.6703 35.9572 12.4946 34.6005 12.019 32.7303H39.1519V28.166C39.1519 24.8433 38.4132 21.8579 36.9204 19.2136C35.4354 16.5731 33.2349 14.4882 30.3306 12.9668ZM12.019 25.0081C12.2085 23.2299 12.9626 21.8157 14.2852 20.758C15.6078 19.7041 17.4061 19.1791 19.6723 19.1791C21.985 19.1791 23.8026 19.6926 25.1252 20.7235C26.4478 21.7506 27.2058 23.1801 27.3953 25.0043H12.019V25.0081Z" fill="white"/>
<path d="M42.3423 45.4385H54.8105V30.6264L67.8471 45.4385H82.1599L66.7836 28.028L80.3191 11.7366H66.0024L54.8105 25.2879V0.503906H42.3423V45.4385Z" fill="white"/>
<path d="M110.643 12.9668C107.479 11.4453 103.797 10.6865 99.5937 10.6865C95.39 10.6865 91.7044 11.4453 88.541 12.9668C85.3776 14.4882 82.9334 16.5922 81.2086 19.2864C79.4838 21.9805 78.6214 25.0771 78.6214 28.5875C78.6214 32.098 79.4838 35.1984 81.2086 37.8887C82.9334 40.5829 85.3776 42.6869 88.541 44.2083C91.7044 45.7298 95.39 46.4886 99.5937 46.4886C103.797 46.4886 107.479 45.7298 110.643 44.2083C113.806 42.6869 116.254 40.5829 117.979 37.8887C119.704 35.1984 120.566 32.098 120.566 28.5875C120.566 25.0771 119.704 21.9767 117.979 19.2864C116.254 16.5922 113.806 14.4882 110.643 12.9668ZM105.576 34.6619C104.091 36.1373 102.092 36.8731 99.5937 36.8731C97.0877 36.8731 95.0961 36.1373 93.6033 34.6619C92.1144 33.1864 91.3718 31.1629 91.3718 28.5875C91.3718 26.0122 92.1105 23.9887 93.6033 22.5132C95.0922 21.0378 97.0877 20.302 99.5937 20.302C102.096 20.302 104.091 21.0378 105.576 22.5132C107.065 23.9887 107.812 26.0122 107.812 28.5875C107.808 31.1629 107.065 33.1864 105.576 34.6619Z" fill="white"/>
<path d="M136.225 0.503906V45.4385H123.753V0.503906H136.225Z" fill="white"/>
<path d="M30.0405 0.503906H17.4254L14.1266 8.9313H25.6937L30.0405 0.503906Z" fill="white"/>
<path d="M110.032 0.503906H97.4164L94.1176 8.9313H105.685L110.032 0.503906Z" fill="white"/>
</svg>
