<svg width="102" height="140" viewBox="0 0 102 140" fill="none" xmlns="http://www.w3.org/2000/svg">
<path fill-rule="evenodd" clip-rule="evenodd" d="M17.3829 130.55V130.478C17.3829 126.094 14.0691 122.601 9.81844 122.601C5.45901 122.601 2.32286 126.13 2.32286 130.409V130.478C2.32286 134.865 5.63829 138.357 9.88756 138.357C14.2484 138.357 17.3829 134.829 17.3829 130.55M0.413574 130.55V130.478C0.413574 125.382 4.41307 120.962 9.88756 120.962C15.3312 120.962 19.2922 125.311 19.2922 130.409V130.478C19.2922 135.576 15.2927 140 9.81844 140C4.37727 140 0.413574 135.649 0.413574 130.55M23.4219 130.55V130.478C23.4219 125.382 27.5181 120.962 32.7632 120.962C36.2111 120.962 38.3674 122.528 40.0927 124.313L38.835 125.593C37.2542 123.992 35.4559 122.601 32.726 122.601C28.5596 122.601 25.3262 126.058 25.3262 130.409V130.478C25.3262 134.865 28.6667 138.357 32.8706 138.357C35.4559 138.357 37.4674 137.041 39.014 135.328L40.2359 136.398C38.3674 138.5 36.1381 140 32.7632 140C27.4812 140 23.4219 135.649 23.4219 130.55ZM58.6846 129.623C58.4326 125.953 56.3132 122.564 52.1082 122.564C48.4764 122.564 45.6757 125.594 45.351 129.623H58.6846ZM43.4803 130.517V130.442C43.4803 125.167 47.2212 120.962 52.1787 120.962C57.3192 120.962 60.5892 125.097 60.5892 130.478C60.5892 130.8 60.5892 130.908 60.5534 131.192H45.351C45.6757 135.721 48.9432 138.359 52.5406 138.359C55.376 138.359 57.3192 137.112 58.8264 135.508L60.0486 136.578C58.1795 138.574 55.9896 140 52.4676 140C47.6519 140 43.4803 136.184 43.4803 130.517ZM78.3541 132.709V130.622C76.7984 130.229 74.7368 129.799 72.0942 129.799C68.1831 129.799 66.0105 131.522 66.0105 134.072V134.144C66.0105 136.802 68.5436 138.347 71.3704 138.347C75.1348 138.347 78.3541 136.049 78.3541 132.709ZM64.1291 134.25V134.18C64.1291 130.371 67.4219 128.216 72.2035 128.216C74.7715 128.216 76.5461 128.541 78.3208 129.01V128.216C78.3208 124.514 76.0372 122.613 72.2385 122.613C69.9913 122.613 68.147 123.225 66.4459 124.088L65.793 122.54C67.8212 121.609 69.8137 120.962 72.3478 120.962C74.8437 120.962 76.8345 121.643 78.1751 122.974C79.4061 124.195 80.0579 125.883 80.0579 128.146V139.568H78.3208V136.514C77.0534 138.274 74.7715 140 71.2606 140C67.8209 140 64.1288 138.06 64.1288 134.25M86.2523 121.391H88.0085V124.803C89.221 122.646 91.2608 120.962 94.5883 120.962C99.2011 120.962 101.886 124.122 101.886 128.504V139.707H100.134V128.827C100.134 125.056 98.0228 122.576 94.3389 122.576C90.7607 122.576 88.0085 125.307 88.0085 129.112V139.707H86.2523V121.391ZM13.3925 49.0574C13.3925 52.0499 10.9514 54.4772 7.93559 54.4772C4.92227 54.4772 2.47845 52.0499 2.47845 49.0577C2.47845 46.0652 4.92227 43.6404 7.93559 43.6404C10.9511 43.6404 13.3925 46.0652 13.3925 49.0574ZM100.117 49.0574C100.117 52.0499 97.6725 54.4772 94.6608 54.4772C91.6464 54.4772 89.2023 52.0499 89.2023 49.0577C89.2023 46.0652 91.6464 43.6404 94.6605 43.6404C97.6725 43.6404 100.117 46.0652 100.117 49.0574ZM56.7546 70.4389C56.7546 73.4308 54.3108 75.8581 51.298 75.8581C48.2839 75.8581 45.8404 73.4308 45.8404 70.4389C45.8404 67.4469 48.2839 65.0213 51.298 65.0213C54.3108 65.0213 56.7546 67.4469 56.7546 70.4389ZM34.9261 59.8957C34.9261 62.8868 32.4836 65.3141 29.4684 65.3141C26.4542 65.3141 24.0118 62.8868 24.0118 59.8957C24.0118 56.9021 26.4545 54.4772 29.4684 54.4772C32.4839 54.4772 34.9261 56.9021 34.9261 59.8957ZM78.288 59.8957C78.288 62.8868 75.8444 65.3141 72.8317 65.3141C69.8161 65.3141 67.3737 62.8868 67.3737 59.8957C67.3737 56.9021 69.8164 54.4772 72.8317 54.4772C75.8444 54.4772 78.288 56.9021 78.288 59.8957ZM11.6228 65.4618C11.6228 67.4803 9.97321 69.1217 7.93752 69.1217C5.89908 69.1217 4.24839 67.4803 4.24839 65.4618C4.24839 63.4383 5.89908 61.7993 7.93752 61.7993C9.97348 61.7993 11.6228 63.438 11.6228 65.4618ZM98.3466 65.4618C98.3466 67.4803 96.6948 69.1217 94.6591 69.1217C92.6226 69.1217 90.9722 67.4803 90.9722 65.4618C90.9722 63.4383 92.6226 61.7993 94.6594 61.7993C96.6948 61.7993 98.3469 63.438 98.3469 65.4618M54.9847 87.1317C54.9847 89.154 53.3324 90.7952 51.2989 90.7952C49.264 90.7952 47.6103 89.154 47.6103 87.1314C47.6103 85.1107 49.264 83.4731 51.2989 83.4731C53.3321 83.4731 54.9847 85.1104 54.9847 87.1317ZM33.1561 76.2986C33.1561 78.3204 31.5057 79.9583 29.4703 79.9583C27.4335 79.9583 25.7817 78.3204 25.7817 76.2986C25.7817 74.2755 27.4335 72.6362 29.4703 72.6362C31.5057 72.6362 33.1561 74.2755 33.1561 76.2986ZM76.5181 76.2986C76.5181 78.3204 74.8654 79.9583 72.833 79.9583C70.7952 79.9583 69.1436 78.3204 69.1436 76.2986C69.1436 74.2755 70.7952 72.6362 72.833 72.6362C74.8654 72.6362 76.5181 74.2755 76.5181 76.2986ZM9.85286 78.3456C9.85286 78.8505 9.65085 79.3348 9.29127 79.6918C8.93168 80.0488 8.44398 80.2494 7.93546 80.2494C7.42693 80.2494 6.93923 80.0488 6.57964 79.6918C6.22006 79.3348 6.01805 78.8505 6.01805 78.3456C6.01812 78.0956 6.0678 77.8481 6.16426 77.6173C6.26071 77.3864 6.40204 77.1767 6.58018 77C6.75831 76.8234 6.96975 76.6834 7.20242 76.588C7.43508 76.4925 7.68441 76.4435 7.93614 76.4438C8.18778 76.4437 8.43697 76.4928 8.66949 76.5883C8.90202 76.6838 9.11331 76.8238 9.29131 77.0004C9.4693 77.177 9.61051 77.3867 9.70686 77.6175C9.80321 77.8483 9.85283 78.0957 9.85286 78.3456ZM96.5767 78.3456C96.5767 78.8505 96.3747 79.3348 96.0151 79.6918C95.6555 80.0488 95.1678 80.2494 94.6593 80.2494C94.1507 80.2494 93.663 80.0488 93.3035 79.6918C92.9439 79.3348 92.7419 78.8505 92.7419 78.3456C92.7419 78.0956 92.7915 77.8481 92.8879 77.6172C92.9843 77.3863 93.1257 77.1765 93.3038 76.9999C93.482 76.8232 93.6934 76.6832 93.9261 76.5878C94.1588 76.4924 94.4082 76.4435 94.66 76.4438C95.7169 76.4438 96.5767 77.2948 96.5767 78.3456ZM53.2148 100.02C53.2148 101.072 52.355 101.925 51.298 101.925C50.7893 101.925 50.3015 101.724 49.9419 101.367C49.5823 101.009 49.3802 100.525 49.3802 100.02C49.3802 99.7699 49.4299 99.5224 49.5262 99.2914C49.6227 99.0605 49.7639 98.8507 49.942 98.674C50.1202 98.4973 50.3316 98.3572 50.5643 98.2617C50.7969 98.1661 51.0463 98.1171 51.298 98.1173C51.8063 98.1173 52.2937 98.3177 52.6532 98.6745C53.0126 99.0313 53.2146 99.5152 53.2148 100.02ZM31.3865 89.1844C31.3861 89.6893 31.1839 90.1734 30.8242 90.5304C30.4646 90.8873 29.9769 91.0879 29.4684 91.0881C28.9601 91.0876 28.4727 90.8869 28.1134 90.53C27.754 90.173 27.552 89.6891 27.5517 89.1844C27.5516 88.9344 27.6011 88.6869 27.6974 88.4559C27.7937 88.225 27.9349 88.0151 28.1129 87.8383C28.2909 87.6615 28.5022 87.5213 28.7348 87.4256C28.9673 87.3299 29.2166 87.2807 29.4684 87.2807C29.7202 87.2806 29.9697 87.3297 30.2024 87.4253C30.4351 87.5209 30.6466 87.6611 30.8247 87.8379C31.0028 88.0147 31.1441 88.2246 31.2405 88.4556C31.3369 88.6867 31.3865 88.9343 31.3865 89.1844ZM74.7484 89.1844C74.7484 90.2346 73.8883 91.0881 72.8317 91.0881C72.5798 91.0882 72.3304 91.0391 72.0976 90.9435C71.8649 90.8479 71.6534 90.7077 71.4753 90.5309C71.2971 90.3541 71.1558 90.1442 71.0594 89.9132C70.9631 89.6821 70.9135 89.4345 70.9136 89.1844C70.9132 88.9342 70.9626 88.6865 71.0589 88.4553C71.1552 88.2241 71.2965 88.0141 71.4747 87.8373C71.6529 87.6604 71.8645 87.5202 72.0973 87.4247C72.3302 87.3292 72.5797 87.2803 72.8317 87.2807C73.0834 87.2807 73.3327 87.33 73.5653 87.4257C73.7978 87.5214 74.0091 87.6616 74.1871 87.8384C74.3651 88.0152 74.5063 88.225 74.6026 88.456C74.6989 88.6869 74.7484 88.9344 74.7484 89.1844ZM58.5246 7.32266C58.5246 11.3673 55.2224 14.6445 51.1521 14.6445C47.0777 14.6445 43.7755 11.3673 43.7755 7.32266C43.7755 3.27852 47.0777 0 51.1521 0C55.2224 0 58.5243 3.27852 58.5243 7.32238M58.5243 28.9959C58.5243 33.04 55.2224 36.318 51.1521 36.318C47.0777 36.318 43.7755 33.04 43.7755 28.9959C43.7755 24.9528 47.0777 21.6737 51.1521 21.6737C55.2224 21.6737 58.5243 24.9528 58.5243 28.9959ZM58.5243 50.3778C58.5243 54.4204 55.2224 57.6989 51.1521 57.6989C47.0777 57.6989 43.7755 54.4204 43.7755 50.3778C43.7755 46.3329 47.0777 43.0544 51.1521 43.0544C55.2224 43.0544 58.5243 46.3329 58.5243 50.3778ZM101.886 28.9959C101.886 33.04 98.5845 36.318 94.5126 36.318C90.439 36.318 87.1377 33.04 87.1377 28.9959C87.1377 24.9528 90.439 21.6737 94.5126 21.6737C98.5848 21.6737 101.886 24.9528 101.886 28.9959ZM15.1624 28.9959C15.1624 33.04 11.8616 36.318 7.78881 36.318C3.71551 36.318 0.413574 33.04 0.413574 28.9959C0.413574 24.9528 3.71578 21.6737 7.78853 21.6737C11.8616 21.6737 15.1624 24.9528 15.1624 28.9959ZM36.991 18.159C36.991 22.2026 33.6898 25.4811 29.6165 25.4811C25.5432 25.4811 22.2421 22.2026 22.2421 18.159C22.2421 14.1127 25.5432 10.8369 29.6165 10.8369C33.6896 10.8369 36.991 14.1127 36.991 18.159ZM36.991 39.5391C36.991 43.5832 33.6898 46.8617 29.6165 46.8617C25.5432 46.8617 22.2421 43.5832 22.2421 39.5391C22.2421 35.4963 25.5432 32.2175 29.6165 32.2175C33.6896 32.2175 36.991 35.4963 36.991 39.5391ZM80.3529 18.159C80.3529 22.2026 77.0509 25.4811 72.9779 25.4811C68.9049 25.4811 65.604 22.2026 65.604 18.159C65.604 14.1127 68.9049 10.8369 72.9779 10.8369C77.0509 10.8369 80.3529 14.1127 80.3529 18.159ZM80.3529 39.5391C80.3529 43.5832 77.0509 46.8617 72.9779 46.8617C68.9049 46.8617 65.604 43.5832 65.604 39.5391C65.604 35.4963 68.9049 32.2175 72.9779 32.2175C77.0509 32.2175 80.3529 35.4963 80.3529 39.5391Z" fill="white"/>
</svg>
