<svg width="311" height="66" viewBox="0 0 311 66" fill="none" xmlns="http://www.w3.org/2000/svg">
<path d="M55.0789 20.1364C53.7245 19.3012 51.9799 19.3012 50.5107 20.1364L39.9968 26.5624L32.8575 30.7613L22.3436 37.1874C20.9892 38.0225 19.2446 38.0225 17.7754 37.1874L9.41942 32.1533C8.06501 31.3181 7.12382 29.787 7.12382 28.0935V18.1877C7.12382 16.5174 7.92728 14.9863 9.41942 14.128L17.6377 9.23305C18.9921 8.3979 20.7367 8.3979 22.2059 9.23305L30.4242 14.128C31.7786 14.9631 32.7198 16.4942 32.7198 18.1877V24.6137L39.8591 20.2756V13.8496C39.8591 12.1793 39.0556 10.6482 37.5635 9.78982L22.3436 0.579975C20.9892 -0.255174 19.2446 -0.255174 17.7754 0.579975L2.2801 9.78982C0.787957 10.625 -0.0155029 12.1561 -0.0155029 13.8496V32.4316C-0.0155029 34.1019 0.787957 35.6331 2.2801 36.4914L17.7754 45.7012C19.1298 46.5364 20.8745 46.5364 22.3436 45.7012L32.8575 39.4144L39.9968 35.0763L50.5107 28.7895C51.8651 27.9543 53.6097 27.9543 55.0789 28.7895L63.2972 33.6844C64.6516 34.5195 65.5928 36.0506 65.5928 37.7441V47.6731C65.5928 49.3434 64.7893 50.8745 63.2972 51.7329L55.0789 56.767C53.7245 57.6021 51.9799 57.6021 50.5107 56.767L42.2924 51.8721C40.938 51.0369 39.9968 49.5058 39.9968 47.8123V41.3863L32.8575 45.7244V52.1505C32.8575 53.8208 33.661 55.3519 35.1531 56.2102L50.6484 65.4201C52.0028 66.2552 53.7475 66.2552 55.2166 65.4201L70.712 56.2102C72.0664 55.3751 73.0076 53.8439 73.0076 52.1505V33.5684C73.0076 31.8981 72.2041 30.367 70.712 29.5086L55.1019 20.1596L55.0789 20.1364Z" fill="white"/>
<path d="M101.427 60.0845V44.6574C103.08 46.7685 106.041 47.9516 109.508 47.9516C118.323 47.9516 124.291 41.572 124.291 31.8518C124.291 22.1316 118.828 15.752 110.242 15.752C106.294 15.752 103.241 17.2367 101.427 19.6493V16.2391H92.9792V60.0845H101.427ZM108.475 40.5049C103.906 40.5049 100.922 37.0251 100.922 31.8286C100.922 26.5625 103.906 23.1059 108.475 23.1059C112.905 23.1059 115.958 26.5857 115.958 31.8286C115.958 37.0251 112.928 40.5049 108.475 40.5049Z" fill="white"/>
<path d="M143.506 47.9516C152.94 47.9516 159.69 41.1312 159.69 31.8518C159.69 22.5723 152.94 15.752 143.506 15.752C134.071 15.752 127.322 22.5723 127.322 31.8518C127.322 41.1312 134.071 47.9516 143.506 47.9516ZM143.506 40.5281C138.937 40.5281 135.838 37.0019 135.838 31.8518C135.838 26.6553 138.937 23.1291 143.506 23.1291C148.074 23.1291 151.173 26.6553 151.173 31.8518C151.173 37.0019 148.074 40.5281 143.506 40.5281Z" fill="white"/>
<path d="M173.233 47.4645V2.66797H164.786V47.4645H173.233Z" fill="white"/>
<path d="M198.646 16.2393L192.264 36.3756L185.813 16.2393H177.182L188.316 47.2094L183.816 60.0846H191.897L196.212 47.3254L207.346 16.2393H198.646Z" fill="white"/>
<path d="M231.106 19.3243C229.407 17.1668 226.354 15.7285 222.658 15.7285C213.705 15.7285 208.31 22.1081 208.31 31.8283C208.31 41.5486 213.728 47.9282 222.796 47.9282C226.377 47.9282 229.613 46.5594 231.197 44.2628V48.3457C231.197 51.2688 229.315 53.3102 226.767 53.3102H212.649V60.061H228.098C235.031 60.061 239.645 55.7925 239.645 49.2737V16.1925H231.129V19.3011L231.106 19.3243ZM224.104 40.5046C219.605 40.5046 216.62 37.0944 216.62 31.8283C216.62 26.5623 219.605 23.1057 224.104 23.1057C228.672 23.1057 231.657 26.5855 231.657 31.8283C231.657 37.0944 228.672 40.5046 224.104 40.5046Z" fill="white"/>
<path d="M260.925 47.9516C270.36 47.9516 277.109 41.1312 277.109 31.8518C277.109 22.5723 270.36 15.752 260.925 15.752C251.491 15.752 244.741 22.5723 244.741 31.8518C244.741 41.1312 251.491 47.9516 260.925 47.9516ZM260.925 40.5281C256.357 40.5281 253.258 37.0019 253.258 31.8518C253.258 26.6553 256.357 23.1291 260.925 23.1291C265.494 23.1291 268.593 26.6553 268.593 31.8518C268.593 37.0019 265.494 40.5281 260.925 40.5281Z" fill="white"/>
<path d="M290.24 47.4644V30.3671C290.24 26.3305 292.857 23.4307 296.576 23.4307C300.111 23.4307 302.476 26.1449 302.476 29.9263V47.4644H310.993V28.024C310.993 20.8324 306.493 15.752 299.56 15.752C295.359 15.752 291.962 17.5382 290.263 20.5773V16.2391H281.747V47.4644H290.263H290.24Z" fill="white"/>
</svg>
